<svg version="1.1" id="Layer_1" xmlns="http://www.w3.org/2000/svg" xmlns:xlink="http://www.w3.org/1999/xlink" x="0px" y="0px"
	 width="100%" viewBox="0 0 154 102" enable-background="new 0 0 154 102" xml:space="preserve">
<path fill="#101010" opacity="1.000000" stroke="none" 
	d="
M87.000000,1.000000 
	C109.588921,1.000000 132.177841,1.000000 155.000000,1.000000 
	C155.000000,20.686947 155.000000,40.374817 154.642029,60.449997 
	C151.833496,60.547188 148.353088,59.092670 147.122055,60.181446 
	C143.151291,63.693340 140.008804,68.141716 137.861298,70.677315 
	C131.620560,71.842850 126.788834,72.374954 122.185661,73.700645 
	C116.693993,75.282242 114.039894,73.695732 114.003502,67.998665 
	C113.993988,66.509254 114.016624,65.019653 114.070740,63.275307 
	C114.457497,62.449699 114.797989,61.878922 115.455765,61.086060 
	C117.792427,57.867825 120.070900,55.009689 121.760529,51.837875 
	C123.558022,48.463604 122.231461,46.895401 118.422607,47.394707 
	C117.445084,47.522858 116.483849,47.775234 115.479828,47.631016 
	C114.214035,46.683102 112.983536,46.074715 111.753036,45.466328 
	C111.645630,46.639584 111.516197,47.811321 111.435463,48.986412 
	C111.275253,51.318108 111.141914,53.651646 110.687897,55.951668 
	C109.881638,55.021652 109.384949,54.124393 108.862778,52.905239 
	C108.219971,52.058605 107.602654,51.533867 106.992973,51.004494 
	C107.000610,50.999859 106.989838,51.014839 107.003891,50.660698 
	C106.041451,49.191730 105.064964,48.076904 103.824959,46.918678 
	C103.374260,46.583714 103.187073,46.292156 102.912758,45.695084 
	C102.050491,44.977024 101.275352,44.564476 100.500221,44.151928 
	C100.308212,44.761456 100.116211,45.370987 99.920776,46.446434 
	C99.592659,51.603256 99.267967,56.294163 98.668442,60.865314 
	C97.250107,60.831753 96.106628,60.917946 94.726761,60.752441 
	C92.761765,57.682827 91.033142,54.864918 89.250603,51.771461 
	C89.134689,51.319305 89.072678,51.142693 88.928375,50.783272 
	C88.705841,50.368618 88.527397,50.171314 88.260574,49.615555 
	C87.813354,47.972591 87.416328,46.722626 87.026093,45.143726 
	C87.693932,39.932995 86.528511,38.274036 81.290138,38.096840 
	C77.855576,37.980663 76.328178,36.351948 76.190956,33.364929 
	C75.953690,28.199938 76.091599,23.018778 75.993958,17.845875 
	C75.942314,15.109614 77.198639,13.829926 79.895256,14.015787 
	C83.643997,14.274162 85.372063,11.907270 86.121140,8.832214 
	C86.737900,6.300355 86.730682,3.616496 87.000000,1.000000 
z"/>
<path fill="#090909" opacity="1.000000" stroke="none" 
	d="
M57.000000,1.000000 
	C61.356899,1.000000 65.713799,1.000000 70.540840,1.386581 
	C72.096779,8.455516 71.260925,14.867052 68.837891,21.211287 
	C67.500282,24.713579 67.039337,28.541985 65.886551,32.128017 
	C65.447296,33.494446 64.262077,35.561745 63.273029,35.647297 
	C59.077126,36.010227 54.736378,36.282909 50.619652,35.582668 
	C45.272522,34.673145 40.552341,37.121704 38.855247,42.814240 
	C35.916138,47.643864 33.113583,52.228306 30.516296,56.926231 
	C30.155073,57.579601 30.805428,58.792229 30.987499,59.745964 
	C31.766527,59.319458 33.200939,58.924599 33.223301,58.461559 
	C33.449333,53.780636 37.012066,54.334209 40.337677,54.057457 
	C42.168304,56.346970 43.650070,58.513039 45.131840,60.679104 
	C45.560692,60.383629 45.989544,60.088154 46.418396,59.792679 
	C46.177296,58.530636 45.936192,57.268593 46.097672,55.942642 
	C48.377167,55.597134 50.254082,55.315533 52.074783,55.440559 
	C52.678703,57.584232 53.338837,59.321270 53.977242,61.416294 
	C50.046951,66.580360 46.592823,71.867508 42.128235,76.084984 
	C34.556541,83.237564 26.327326,89.692184 18.444988,96.521553 
	C17.828812,97.055412 17.259689,98.515633 17.557796,99.034271 
	C18.040165,99.873489 19.235485,100.730438 20.175175,100.784081 
	C21.787003,100.876083 23.425457,100.231277 25.067991,100.118950 
	C27.542913,99.949707 30.248779,99.528320 31.000000,103.000000 
	C21.069971,103.000000 11.139941,103.000000 1.000000,103.000000 
	C1.000000,92.313354 1.000000,81.625336 1.390254,70.462784 
	C3.585718,69.290031 6.173619,69.106224 7.038642,67.790077 
	C9.045906,64.735992 10.221077,61.135025 11.624400,57.999603 
	C14.161160,57.737045 16.412636,57.504017 18.664110,57.270985 
	C18.799053,56.699219 18.933996,56.127453 19.068939,55.555687 
	C17.040585,54.388260 15.139259,52.788513 12.956346,52.147110 
	C8.923309,50.962090 9.431870,48.345348 11.752052,46.886074 
	C14.336160,45.260803 13.947844,43.556187 14.234735,41.255402 
	C14.463487,39.420868 16.028835,36.963860 17.646578,36.253326 
	C21.188772,34.697559 25.556465,34.774624 28.794418,32.850807 
	C31.387316,31.310247 33.160267,27.964926 34.516319,25.056519 
	C34.869358,24.299335 32.303371,22.181152 31.214464,20.854259 
	C32.773823,20.156569 34.453503,18.962164 36.260292,18.721325 
	C38.063572,18.480957 39.994179,19.195782 40.566223,19.286116 
	C44.818645,14.904252 48.088856,10.357000 52.454784,7.462445 
	C55.222733,5.627330 56.311588,3.739706 57.000000,1.000000 
M35.746365,37.840836 
	C37.080242,37.122013 38.414120,36.403187 39.747997,35.684364 
	C39.558025,35.303524 39.368050,34.922688 39.178074,34.541847 
	C37.450382,35.197895 35.722691,35.853947 33.994999,36.509995 
	C34.391224,37.055298 34.787449,37.600601 35.746365,37.840836 
M23.189148,38.664246 
	C23.014835,38.807167 22.840523,38.950092 22.666210,39.093018 
	C22.752089,39.186607 22.837965,39.280201 22.923841,39.373791 
	C23.079315,39.209957 23.234789,39.046124 23.189148,38.664246 
z"/>
<path fill="#0D0D0D" opacity="1.000000" stroke="none" 
	d="
M114.024490,63.530140 
	C114.016624,65.019653 113.993988,66.509254 114.003502,67.998665 
	C114.039894,73.695732 116.693993,75.282242 122.185661,73.700645 
	C126.788834,72.374954 131.620560,71.842850 137.861298,70.677315 
	C140.008804,68.141716 143.151291,63.693340 147.122055,60.181446 
	C148.353088,59.092670 151.833496,60.547188 154.642029,60.918655 
	C155.000000,74.953087 155.000000,88.906166 155.000000,103.000000 
	C125.645912,103.000000 96.291611,103.000000 66.467422,102.598297 
	C65.437759,94.078247 67.485405,90.333725 74.952850,87.820892 
	C80.221840,86.047844 85.784218,85.146660 91.215607,83.856224 
	C91.996925,81.944992 94.099457,79.342400 94.754478,79.666382 
	C100.925331,82.718513 101.131294,76.459274 103.712051,74.141640 
	C104.292427,73.620438 103.952774,72.074753 104.036652,71.000687 
	C102.973351,70.933960 101.731049,70.481903 100.881981,70.876335 
	C98.756508,71.863739 96.718384,72.338089 96.304626,69.467140 
	C95.910217,66.730438 95.900139,63.597786 100.248642,63.039200 
	C101.068871,63.031326 101.537338,63.016266 102.346756,62.892220 
	C104.875275,61.338135 102.758530,56.136932 107.927750,57.307587 
	C109.808304,59.402416 111.433548,61.260612 113.274567,63.281876 
	C113.668388,63.473343 113.846443,63.501743 114.024490,63.530140 
z"/>
<path fill="#0B0B0B" opacity="1.000000" stroke="none" 
	d="
M56.531342,1.000000 
	C56.311588,3.739706 55.222733,5.627330 52.454784,7.462445 
	C48.088856,10.357000 44.818645,14.904252 40.566223,19.286116 
	C39.994179,19.195782 38.063572,18.480957 36.260292,18.721325 
	C34.453503,18.962164 32.773823,20.156569 31.214464,20.854259 
	C32.303371,22.181152 34.869358,24.299335 34.516319,25.056519 
	C33.160267,27.964926 31.387316,31.310247 28.794418,32.850807 
	C25.556465,34.774624 21.188772,34.697559 17.646578,36.253326 
	C16.028835,36.963860 14.463487,39.420868 14.234735,41.255402 
	C13.947844,43.556187 14.336160,45.260803 11.752052,46.886074 
	C9.431870,48.345348 8.923309,50.962090 12.956346,52.147110 
	C15.139259,52.788513 17.040585,54.388260 19.068939,55.555687 
	C18.933996,56.127453 18.799053,56.699219 18.664110,57.270985 
	C16.412636,57.504017 14.161160,57.737045 11.624400,57.999603 
	C10.221077,61.135025 9.045906,64.735992 7.038642,67.790077 
	C6.173619,69.106224 3.585718,69.290031 1.390254,69.994125 
	C1.000000,47.080788 1.000000,24.161577 1.000000,1.000000 
	C19.353518,1.000000 37.708099,1.000000 56.531342,1.000000 
z"/>
<path fill="#0E0E0E" opacity="1.000000" stroke="none" 
	d="
M99.896889,63.032005 
	C95.900139,63.597786 95.910217,66.730438 96.304626,69.467140 
	C96.718384,72.338089 98.756508,71.863739 100.881981,70.876335 
	C101.731049,70.481903 102.973351,70.933960 104.036652,71.000687 
	C103.952774,72.074753 104.292427,73.620438 103.712051,74.141640 
	C101.131294,76.459274 100.925331,82.718513 94.754478,79.666382 
	C94.099457,79.342400 91.996925,81.944992 91.215607,83.856224 
	C85.784218,85.146660 80.221840,86.047844 74.952850,87.820892 
	C67.485405,90.333725 65.437759,94.078247 65.998764,102.598297 
	C58.979053,103.000000 51.958103,103.000000 44.548832,102.661148 
	C45.932266,101.359093 47.772530,100.500381 49.453419,99.398552 
	C50.726215,98.564232 52.405502,97.620651 52.818207,96.367996 
	C53.502777,94.290161 53.314636,91.924789 53.561569,88.837280 
	C51.401737,89.402435 49.678871,89.431885 48.492355,90.244484 
	C45.224003,92.482841 42.038105,94.891998 39.103065,97.546982 
	C37.446579,99.045395 36.349220,101.161911 35.000000,103.000000 
	C33.933331,103.000000 32.866661,103.000000 31.399996,103.000000 
	C30.248779,99.528320 27.542913,99.949707 25.067991,100.118950 
	C23.425457,100.231277 21.787003,100.876083 20.175175,100.784081 
	C19.235485,100.730438 18.040165,99.873489 17.557796,99.034271 
	C17.259689,98.515633 17.828812,97.055412 18.444988,96.521553 
	C26.327326,89.692184 34.556541,83.237564 42.128235,76.084984 
	C46.592823,71.867508 50.046951,66.580360 54.234241,61.126633 
	C55.380226,57.237686 56.247490,53.996391 57.232620,51.108360 
	C58.863605,53.897499 60.376724,56.333374 62.181190,58.614841 
	C64.499496,55.902599 66.526451,53.344765 68.453117,51.214958 
	C68.568611,55.090641 68.784401,58.538292 68.975845,62.360641 
	C66.178162,66.502235 68.260193,70.248230 68.705261,74.018799 
	C67.890739,74.339912 67.370956,74.642227 66.851173,74.944550 
	C67.042816,75.157143 67.234459,75.369743 67.426094,75.582344 
	C67.950729,75.054901 68.475365,74.527451 69.399155,73.997849 
	C71.221054,73.204414 73.057411,72.738029 73.984695,71.557549 
	C76.261986,68.658447 78.353912,68.398781 79.536392,71.923218 
	C81.113731,76.624557 85.764221,75.102348 86.571976,74.118721 
	C89.351196,70.734406 95.106422,69.038956 94.195908,62.840862 
	C94.577065,62.081959 94.770103,61.543049 94.963142,61.004143 
	C96.106628,60.917946 97.250107,60.831753 98.693214,61.153736 
	C99.294189,62.051941 99.595543,62.541973 99.896889,63.032005 
M60.489258,73.134399 
	C60.027664,74.470406 59.566074,75.806404 59.104481,77.142410 
	C60.077534,76.969276 61.050583,76.796135 62.023636,76.623001 
	C61.695225,75.347755 61.366814,74.072502 60.489258,73.134399 
z"/>
<path fill="#0B0B0B" opacity="1.000000" stroke="none" 
	d="
M39.056938,42.605068 
	C40.552341,37.121704 45.272522,34.673145 50.619652,35.582668 
	C54.736378,36.282909 59.077126,36.010227 63.273029,35.647297 
	C64.262077,35.561745 65.447296,33.494446 65.886551,32.128017 
	C67.039337,28.541985 67.500282,24.713579 68.837891,21.211287 
	C71.260925,14.867052 72.096779,8.455516 71.005493,1.386581 
	C76.022095,1.000000 81.044182,1.000000 86.533142,1.000000 
	C86.730682,3.616496 86.737900,6.300355 86.121140,8.832214 
	C85.372063,11.907270 83.643997,14.274162 79.895256,14.015787 
	C77.198639,13.829926 75.942314,15.109614 75.993958,17.845875 
	C76.091599,23.018778 75.953690,28.199938 76.190956,33.364929 
	C76.328178,36.351948 77.855576,37.980663 81.290138,38.096840 
	C86.528511,38.274036 87.693932,39.932995 86.844238,44.877388 
	C86.109520,44.984604 85.563423,45.029224 84.674492,45.165756 
	C83.260696,48.514233 82.189735,51.770798 80.824120,55.105644 
	C80.117172,55.756844 79.704880,56.329762 78.957855,56.976059 
	C77.407280,58.364048 76.191444,59.678661 74.599487,61.017471 
	C72.990700,61.286243 71.758026,61.530827 70.637581,61.335396 
	C70.749809,55.151684 70.749809,49.407982 70.749809,43.664280 
	C70.380440,43.528786 70.011070,43.393291 69.641708,43.257793 
	C68.557800,45.145470 67.473900,47.033142 66.121201,49.079929 
	C64.179070,50.804897 62.505722,52.370750 60.630432,53.636967 
	C59.203987,50.256382 57.979481,47.175430 56.659653,43.758591 
	C53.379089,40.843601 53.237305,43.231251 53.027988,45.573727 
	C52.746067,48.728653 52.431534,51.880665 52.131001,55.033928 
	C50.254082,55.315533 48.377167,55.597134 45.890358,55.673943 
	C44.403530,53.639931 43.526596,51.810719 42.548515,49.786453 
	C42.372681,49.304016 42.264297,49.029945 42.116058,48.569466 
	C42.109901,48.369740 41.879684,48.043064 41.837055,47.684113 
	C40.881931,45.751797 39.969433,44.178432 39.056938,42.605068 
z"/>
<path fill="#101010" opacity="1.000000" stroke="none" 
	d="
M35.449982,103.000000 
	C36.349220,101.161911 37.446579,99.045395 39.103065,97.546982 
	C42.038105,94.891998 45.224003,92.482841 48.492355,90.244484 
	C49.678871,89.431885 51.401737,89.402435 53.561569,88.837280 
	C53.314636,91.924789 53.502777,94.290161 52.818207,96.367996 
	C52.405502,97.620651 50.726215,98.564232 49.453419,99.398552 
	C47.772530,100.500381 45.932266,101.359093 44.080254,102.661148 
	C41.299988,103.000000 38.599972,103.000000 35.449982,103.000000 
z"/>
<path fill="#1D1D1B" opacity="1.000000" stroke="none" 
	d="
M74.975609,60.993275 
	C76.191444,59.678661 77.407280,58.364048 79.389992,56.975227 
	C83.072166,56.901024 85.987473,56.901024 89.814217,56.901024 
	C88.166458,55.973549 87.369537,55.524990 86.547623,55.064251 
	C86.522629,55.052071 86.467583,55.059982 86.863167,55.032280 
	C87.476250,54.326340 87.693748,53.648106 88.078308,52.729702 
	C88.598412,52.342022 88.951462,52.194515 89.304512,52.047005 
	C91.033142,54.864918 92.761765,57.682827 94.726761,60.752438 
	C94.770103,61.543049 94.577065,62.081959 93.795670,62.902748 
	C86.906143,64.317368 80.774040,64.043350 74.975609,60.993275 
z"/>
<path fill="#C5C2BF" opacity="1.000000" stroke="none" 
	d="
M100.248642,63.039200 
	C99.595543,62.541973 99.294189,62.051941 98.968063,61.273491 
	C99.267967,56.294163 99.592659,51.603256 100.302834,46.390369 
	C101.458847,45.912457 102.229370,45.956528 102.999893,46.000599 
	C103.187073,46.292156 103.374260,46.583714 103.889458,47.239456 
	C105.141594,48.740704 106.065720,49.877769 106.989838,51.014839 
	C106.989838,51.014839 107.000610,50.999859 107.017487,51.332451 
	C107.652321,52.185741 108.270294,52.706440 108.888260,53.227135 
	C109.384949,54.124393 109.881638,55.021652 110.729103,56.270897 
	C111.725853,57.073891 112.371834,57.524902 113.094910,58.399937 
	C113.134270,60.255577 113.096527,61.687195 113.058792,63.118813 
	C111.433548,61.260612 109.808304,59.402416 107.870209,56.976631 
	C106.094818,54.582714 104.632271,52.756382 103.169731,50.930054 
	C102.781754,51.059254 102.393784,51.188454 102.005806,51.317657 
	C102.005806,55.212173 102.005806,59.106689 102.005806,63.001205 
	C101.537338,63.016266 101.068871,63.031326 100.248642,63.039200 
z"/>
<path fill="#0D0D0D" opacity="1.000000" stroke="none" 
	d="
M115.515137,47.970535 
	C116.483849,47.775234 117.445084,47.522858 118.422607,47.394707 
	C122.231461,46.895401 123.558022,48.463604 121.760529,51.837875 
	C120.070900,55.009689 117.792427,57.867825 115.233505,60.881332 
	C114.486122,59.928627 114.278282,58.958572 114.133804,57.617710 
	C114.170036,56.498688 114.142921,55.750477 114.356857,54.733856 
	C114.903656,52.300480 115.209396,50.135509 115.515137,47.970535 
z"/>
<path fill="#8E8C88" opacity="1.000000" stroke="none" 
	d="
M115.479836,47.631012 
	C115.209396,50.135509 114.903656,52.300480 114.164520,55.001198 
	C113.479271,56.365719 113.227432,57.194492 112.986618,58.011833 
	C112.997650,58.000404 113.017807,57.975914 113.017807,57.975914 
	C112.371834,57.524902 111.725853,57.073891 111.038673,56.303650 
	C111.141914,53.651646 111.275253,51.318108 111.435463,48.986412 
	C111.516197,47.811321 111.645630,46.639584 111.753036,45.466328 
	C112.983536,46.074715 114.214035,46.683102 115.479836,47.631012 
z"/>
<path fill="#B3ACAA" opacity="1.000000" stroke="none" 
	d="
M89.250603,51.771461 
	C88.951462,52.194515 88.598412,52.342022 87.888527,52.721764 
	C87.531693,52.953999 87.152092,52.938789 87.021027,52.601437 
	C85.934570,51.547104 84.979187,50.830120 84.058624,49.745171 
	C84.401413,47.942749 84.709366,46.508297 85.017319,45.073845 
	C85.563423,45.029224 86.109520,44.984604 86.837463,45.206322 
	C87.416328,46.722626 87.813354,47.972591 88.196243,49.860649 
	C88.458290,50.654522 88.734474,50.810303 89.010666,50.966080 
	C89.072678,51.142693 89.134689,51.319305 89.250603,51.771461 
z"/>
<path fill="#8E8C88" opacity="1.000000" stroke="none" 
	d="
M114.070450,57.988518 
	C114.278282,58.958572 114.486122,59.928627 114.916222,61.103413 
	C114.797989,61.878922 114.457497,62.449699 114.070740,63.275307 
	C113.846443,63.501743 113.668388,63.473343 113.274567,63.281876 
	C113.096527,61.687195 113.134270,60.255577 113.094910,58.399937 
	C113.017807,57.975914 112.997650,58.000404 113.260391,58.004265 
	C113.705559,58.001595 113.888000,57.995056 114.070450,57.988518 
z"/>
<path fill="#282725" opacity="1.000000" stroke="none" 
	d="
M102.912758,45.695084 
	C102.229370,45.956528 101.458847,45.912457 100.306259,45.924454 
	C100.116211,45.370987 100.308212,44.761456 100.500221,44.151928 
	C101.275352,44.564476 102.050491,44.977024 102.912758,45.695084 
z"/>
<path fill="#282725" opacity="1.000000" stroke="none" 
	d="
M107.003891,50.660698 
	C106.065720,49.877769 105.141594,48.740704 104.152969,47.282860 
	C105.064964,48.076904 106.041451,49.191730 107.003891,50.660698 
z"/>
<path fill="#282725" opacity="1.000000" stroke="none" 
	d="
M108.862778,52.905243 
	C108.270294,52.706440 107.652321,52.185741 107.009842,51.337086 
	C107.602654,51.533867 108.219971,52.058605 108.862778,52.905243 
z"/>
<path fill="#1D1D1B" opacity="1.000000" stroke="none" 
	d="
M88.928375,50.783272 
	C88.734474,50.810303 88.458290,50.654522 88.246429,50.253647 
	C88.527397,50.171314 88.705841,50.368618 88.928375,50.783272 
z"/>
<path fill="#666563" opacity="1.000000" stroke="none" 
	d="
M38.855247,42.814240 
	C39.969433,44.178432 40.881931,45.751797 41.516392,47.756752 
	C40.821846,50.103569 40.405334,52.018787 39.988823,53.934010 
	C37.012066,54.334209 33.449333,53.780636 33.223301,58.461559 
	C33.200939,58.924599 31.766527,59.319458 30.987499,59.745964 
	C30.805428,58.792229 30.155073,57.579601 30.516296,56.926231 
	C33.113583,52.228306 35.916138,47.643864 38.855247,42.814240 
z"/>
<path fill="#6D6C69" opacity="1.000000" stroke="none" 
	d="
M52.074783,55.440559 
	C52.431534,51.880665 52.746067,48.728653 53.027988,45.573727 
	C53.237305,43.231251 53.379089,40.843601 56.334244,43.832970 
	C56.441025,46.413860 56.777885,48.584476 57.114746,50.755093 
	C56.247490,53.996391 55.380226,57.237686 54.255966,60.768646 
	C53.338837,59.321270 52.678703,57.584232 52.074783,55.440559 
z"/>
<path fill="#817F7C" opacity="1.000000" stroke="none" 
	d="
M40.337677,54.057457 
	C40.405334,52.018787 40.821846,50.103569 41.559021,48.115707 
	C41.879684,48.043064 42.109901,48.369740 42.114498,48.806660 
	C42.177711,49.574692 42.354568,49.820667 42.649662,49.981503 
	C43.526596,51.810719 44.403530,53.639931 45.487778,55.737846 
	C45.936192,57.268593 46.177296,58.530636 46.418396,59.792679 
	C45.989544,60.088154 45.560692,60.383629 45.131840,60.679104 
	C43.650070,58.513039 42.168304,56.346970 40.337677,54.057457 
z"/>
<path fill="#0B0B0B" opacity="1.000000" stroke="none" 
	d="
M35.465019,37.993370 
	C34.787449,37.600601 34.391224,37.055298 33.994999,36.509995 
	C35.722691,35.853947 37.450382,35.197895 39.178074,34.541847 
	C39.368050,34.922688 39.558025,35.303524 39.747997,35.684364 
	C38.414120,36.403187 37.080242,37.122013 35.465019,37.993370 
z"/>
<path fill="#0B0B0B" opacity="1.000000" stroke="none" 
	d="
M23.289707,38.773270 
	C23.234789,39.046124 23.079315,39.209957 22.923841,39.373791 
	C22.837965,39.280201 22.752089,39.186607 22.666210,39.093018 
	C22.840523,38.950092 23.014835,38.807167 23.289707,38.773270 
z"/>
<path fill="#2B2927" opacity="1.000000" stroke="none" 
	d="
M102.346756,62.892220 
	C102.005806,59.106689 102.005806,55.212173 102.005806,51.317657 
	C102.393784,51.188454 102.781754,51.059254 103.169731,50.930054 
	C104.632271,52.756382 106.094818,54.582714 107.614899,56.739998 
	C102.758530,56.136932 104.875275,61.338135 102.346756,62.892220 
z"/>
<path fill="#101010" opacity="1.000000" stroke="none" 
	d="
M74.599487,61.017471 
	C80.774040,64.043350 86.906143,64.317368 93.607559,63.122742 
	C95.106422,69.038956 89.351196,70.734406 86.571976,74.118721 
	C85.764221,75.102348 81.113731,76.624557 79.536392,71.923218 
	C78.353912,68.398781 76.261986,68.658447 73.984695,71.557549 
	C73.057411,72.738029 71.221054,73.204414 69.399155,73.997849 
	C68.260193,70.248230 66.178162,66.502235 69.219421,62.261208 
	C69.833351,61.783188 70.179352,61.779297 70.525352,61.775406 
	C71.758026,61.530827 72.990700,61.286243 74.599487,61.017471 
z"/>
<path fill="#999795" opacity="1.000000" stroke="none" 
	d="
M70.637581,61.335396 
	C70.179352,61.779297 69.833351,61.783188 69.243774,61.886513 
	C68.784401,58.538292 68.568611,55.090641 68.539574,50.926498 
	C67.947548,49.780281 67.168770,49.350548 66.389992,48.920815 
	C67.473900,47.033142 68.557800,45.145470 69.641708,43.257793 
	C70.011070,43.393291 70.380440,43.528786 70.749809,43.664280 
	C70.749809,49.407982 70.749809,55.151684 70.637581,61.335396 
z"/>
<path fill="#969592" opacity="1.000000" stroke="none" 
	d="
M57.232616,51.108360 
	C56.777885,48.584476 56.441025,46.413860 56.429573,44.168861 
	C57.979481,47.175430 59.203987,50.256382 60.666954,53.664627 
	C60.905415,53.991920 60.957523,53.917004 60.689903,53.952427 
	C60.617168,54.434090 60.812054,54.880325 60.985138,55.629913 
	C61.272171,56.878590 61.581005,57.823917 61.889843,58.769245 
	C60.376724,56.333374 58.863605,53.897499 57.232616,51.108360 
z"/>
<path fill="#6A6866" opacity="1.000000" stroke="none" 
	d="
M62.181190,58.614841 
	C61.581005,57.823917 61.272171,56.878590 61.045990,55.274841 
	C61.071602,54.383278 61.014561,54.150139 60.957523,53.917004 
	C60.957523,53.917004 60.905415,53.991920 60.868896,53.964264 
	C62.505722,52.370750 64.179070,50.804897 66.121201,49.079926 
	C67.168770,49.350548 67.947548,49.780281 68.639870,50.498466 
	C66.526451,53.344765 64.499496,55.902599 62.181190,58.614841 
z"/>
<path fill="#101010" opacity="1.000000" stroke="none" 
	d="
M60.763832,72.965828 
	C61.366814,74.072502 61.695225,75.347755 62.023636,76.623001 
	C61.050583,76.796135 60.077534,76.969276 59.104485,77.142410 
	C59.566074,75.806404 60.027664,74.470406 60.763832,72.965828 
z"/>
<path fill="#101010" opacity="1.000000" stroke="none" 
	d="
M68.705261,74.018799 
	C68.475365,74.527451 67.950729,75.054901 67.426094,75.582344 
	C67.234459,75.369743 67.042816,75.157143 66.851173,74.944550 
	C67.370956,74.642227 67.890739,74.339912 68.705261,74.018799 
z"/>
<path fill="#999592" opacity="1.000000" stroke="none" 
	d="
M84.674484,45.165756 
	C84.709366,46.508297 84.401413,47.942749 84.028748,50.069294 
	C84.166771,52.084122 84.369499,53.406860 84.141739,54.779491 
	C82.847099,54.895378 81.982941,54.961372 81.118774,55.027363 
	C82.189735,51.770798 83.260696,48.514233 84.674484,45.165756 
z"/>
<path fill="#8E8C88" opacity="1.000000" stroke="none" 
	d="
M80.824120,55.105644 
	C81.982941,54.961372 82.847099,54.895378 84.482620,54.764786 
	C85.693527,54.825596 86.133080,54.951015 86.572624,55.076431 
	C87.369537,55.524990 88.166458,55.973549 89.814217,56.901024 
	C85.987473,56.901024 83.072166,56.901024 79.724731,56.901852 
	C79.704880,56.329762 80.117172,55.756844 80.824120,55.105644 
z"/>
<path fill="#666563" opacity="1.000000" stroke="none" 
	d="
M42.548515,49.786453 
	C42.354568,49.820667 42.177711,49.574692 42.120659,49.006386 
	C42.264297,49.029945 42.372681,49.304016 42.548515,49.786453 
z"/>
<path fill="#3F3A37" opacity="1.000000" stroke="none" 
	d="
M86.547623,55.064251 
	C86.133080,54.951015 85.693527,54.825596 84.913101,54.714890 
	C84.369499,53.406860 84.166771,52.084122 83.993927,50.437263 
	C84.979187,50.830120 85.934570,51.547104 86.936050,52.963856 
	C86.810623,54.129078 86.639107,54.594532 86.467583,55.059982 
	C86.467583,55.059982 86.522629,55.052071 86.547623,55.064251 
z"/>
<path fill="#8E8C88" opacity="1.000000" stroke="none" 
	d="
M86.863167,55.032280 
	C86.639107,54.594532 86.810623,54.129078 87.067123,53.301208 
	C87.152092,52.938789 87.531693,52.953999 87.721466,52.961937 
	C87.693748,53.648106 87.476250,54.326340 86.863167,55.032280 
z"/>
<path fill="#C5C2BF" opacity="1.000000" stroke="none" 
	d="
M114.133804,57.617710 
	C113.888000,57.995056 113.705559,58.001595 113.249359,58.015697 
	C113.227432,57.194492 113.479271,56.365719 113.923454,55.269604 
	C114.142921,55.750477 114.170036,56.498688 114.133804,57.617710 
z"/>
<path fill="#0B0B0B" opacity="1.000000" stroke="none" 
	d="
M60.689903,53.952427 
	C61.014561,54.150139 61.071602,54.383278 61.067795,54.971489 
	C60.812054,54.880325 60.617168,54.434090 60.689903,53.952427 
z"/>
</svg>